<?xml version="1.0" encoding="utf-8"?>
<!-- Generator: Adobe Illustrator 28.3.0, SVG Export Plug-In . SVG Version: 6.00 Build 0)  -->
<svg version="1.1" id="Livello_1" xmlns="http://www.w3.org/2000/svg" xmlns:xlink="http://www.w3.org/1999/xlink" x="0px" y="0px"
	 viewBox="0 0 300 49" style="enable-background:new 0 0 300 49;" xml:space="preserve">
<style type="text/css">
	.st0{fill:#E50504;}
	.st1{fill:#1F262E;}
</style>
<g>
	<g>
		<path class="st0" d="M105.6,47.1V14.4h41.2c2.1,0,3.9,0.7,5.4,2.2c1.5,1.5,2.2,3.3,2.2,5.3v25.1h-6.7V23.2c0-0.9-0.1-1.5-0.3-1.7
			c-0.2-0.2-0.8-0.3-1.7-0.3h-10.1c-0.9,0-1.5,0.1-1.7,0.3s-0.3,0.8-0.3,1.7v24h-6.8v-24c0-0.9-0.1-1.5-0.3-1.7s-0.8-0.3-1.7-0.3
			h-10.2c-0.9,0-1.5,0.1-1.7,0.3s-0.3,0.8-0.3,1.7v24L105.6,47.1L105.6,47.1z"/>
		<path class="st0" d="M167,47.1c-2.1,0-3.8-0.7-5.3-2.2c-1.5-1.5-2.2-3.3-2.2-5.3V22c0-2.1,0.7-3.8,2.2-5.3
			c1.5-1.5,3.3-2.2,5.3-2.2h18.1c2.1,0,3.9,0.7,5.4,2.2s2.2,3.3,2.2,5.3v17.6c0,2.1-0.7,3.8-2.2,5.3c-1.5,1.5-3.2,2.2-5.4,2.2
			L167,47.1L167,47.1z M168.2,40.4h15.7c0.9,0,1.5-0.1,1.7-0.3c0.2-0.2,0.3-0.8,0.3-1.7V23.2c0-0.9-0.1-1.5-0.3-1.7
			c-0.2-0.2-0.8-0.3-1.7-0.3h-15.7c-0.9,0-1.5,0.1-1.7,0.3s-0.3,0.8-0.3,1.7v15.2c0,0.9,0.1,1.5,0.3,1.7
			C166.7,40.3,167.2,40.4,168.2,40.4z"/>
		<path class="st0" d="M206,47.1c-2.1,0-3.9-0.7-5.4-2.2c-1.5-1.5-2.2-3.3-2.2-5.3V4.2h6.7v10.2h13.1l-7.1,6.7h-6v17.3
			c0,0.9,0.1,1.5,0.3,1.7c0.2,0.2,0.8,0.3,1.7,0.3h11.1v6.7L206,47.1L206,47.1z"/>
		<path class="st0" d="M230.5,47.1c-2.1,0-3.8-0.7-5.3-2.2c-1.5-1.5-2.2-3.3-2.2-5.3V22c0-2.1,0.7-3.8,2.2-5.3
			c1.5-1.5,3.3-2.2,5.3-2.2h18.1c2.1,0,3.9,0.7,5.4,2.2s2.2,3.3,2.2,5.3v17.6c0,2.1-0.7,3.8-2.2,5.3c-1.5,1.5-3.2,2.2-5.4,2.2
			L230.5,47.1L230.5,47.1z M231.7,40.4h15.7c0.9,0,1.5-0.1,1.7-0.3c0.2-0.2,0.3-0.8,0.3-1.7V23.2c0-0.9-0.1-1.5-0.3-1.7
			c-0.2-0.2-0.8-0.3-1.7-0.3h-15.7c-0.9,0-1.5,0.1-1.7,0.3s-0.3,0.8-0.3,1.7v15.2c0,0.9,0.1,1.5,0.3,1.7
			C230.2,40.3,230.8,40.4,231.7,40.4z"/>
		<path class="st0" d="M261.2,47.1V22c0-2.1,0.7-3.8,2.2-5.3c1.5-1.5,3.3-2.2,5.3-2.2H287l-7.1,6.7h-10c-0.9,0-1.5,0.1-1.7,0.3
			s-0.3,0.8-0.3,1.7v24C267.9,47.1,261.2,47.1,261.2,47.1z"/>
		<path class="st0" d="M290.7,10.5V3.7h6.7v6.8H290.7z M290.7,47.1V14.4h6.7v32.7H290.7z"/>
	</g>
	<g>
		<path class="st1" d="M96,6.4c-2-2-4.5-3.1-7.4-3.1h-4h-36l15.6,11.3h19.3c3.8,0,4.2,0.5,4.2,4.2v12.8c0,3.8-0.5,4.2-4.2,4.2H64.3
			L48.7,47.1l40,0c2.9,0,5.3-1,7.4-3.1c2-2,3.1-4.5,3.1-7.4v-4v-15v-4C99.1,10.9,98,8.4,96,6.4z"/>
		<polygon class="st0" points="54.8,13.9 54.8,36.5 70.5,25.2 		"/>
		<polygon class="st1" points="49.8,40.1 49.8,10.3 40.1,3.3 40.1,19 14.1,19 14.1,3.3 2.6,3.3 2.6,47.1 14.1,47.1 14.1,29.9 
			40.1,29.9 40.1,47.1 		"/>
	</g>
</g>
</svg>
