<?xml version="1.0" encoding="utf-8"?>
<!-- Generator: Adobe Illustrator 22.1.0, SVG Export Plug-In . SVG Version: 6.00 Build 0)  -->
<svg version="1.1" id="Layer_1" xmlns="http://www.w3.org/2000/svg" xmlns:xlink="http://www.w3.org/1999/xlink" x="0px" y="0px"
	 viewBox="0 0 420 61.3" style="enable-background:new 0 0 420 61.3;" xml:space="preserve">
<style type="text/css">
	.st0{fill:#E31F26;}
	.st1{fill:#5E6163;}
	.st2{font-family:'Lato-Bold';}
	.st3{font-size:15.7781px;}
</style>
<g>
	<path class="st0" d="M7.5,57.7c-1.7,0-3-0.6-4.2-1.7c-1.2-1.2-1.7-2.6-1.7-4.2V10.1c0-1.7,0.6-3,1.7-4.2c1.2-1.2,2.6-1.7,4.2-1.7
		s3,0.6,4.2,1.7c1.2,1.2,1.7,2.6,1.7,4.2v41.6c0,1.7-0.6,3-1.7,4.2C10.6,57.1,9.2,57.7,7.5,57.7z"/>
	<path class="st0" d="M49.8,57.7c-1.7,0-3-0.6-4.2-1.8c-0.4-0.4-0.7-0.8-1-1.2c0-0.1-0.1-0.2-0.2-0.2L29.8,31.5
		C29.6,31.2,29.3,31,29,31c-0.1,0-0.2,0-0.3,0C28.3,31.2,28,31.5,28,32v19.8c0,1.7-0.6,3-1.7,4.2c-1.2,1.2-2.6,1.7-4.2,1.7
		s-3-0.6-4.2-1.7c-1.2-1.2-1.7-2.6-1.7-4.2V10.1c0-1.7,0.6-3,1.7-4.2c1.2-1.2,2.6-1.7,4.2-1.7c1.7,0,3.1,0.6,4.2,1.7
		c0.4,0.4,0.7,0.8,1,1.3c0,0.1,0.1,0.1,0.2,0.2L42,30.4c0.2,0.3,0.5,0.5,0.8,0.5c0.1,0,0.2,0,0.3,0c0.4-0.1,0.7-0.5,0.7-0.9V10.1
		c0-1.7,0.6-3,1.7-4.2c1.2-1.2,2.6-1.7,4.2-1.7s3,0.6,4.2,1.7c1.2,1.2,1.7,2.6,1.7,4.2v41.6c0,1.7-0.6,3-1.7,4.2
		C52.8,57.1,51.5,57.7,49.8,57.7z"/>
	<path class="st0" d="M64.3,57.7c-1.7,0-3-0.6-4.2-1.7c-1.2-1.2-1.7-2.6-1.7-4.2V10.1c0-1.7,0.6-3,1.7-4.2c1.2-1.2,2.6-1.7,4.2-1.7
		h27.7c1.7,0,3,0.6,4.2,1.7c1.2,1.2,1.7,2.6,1.7,4.2s-0.6,3-1.7,4.2c-1.2,1.2-2.5,1.7-4.2,1.7H71.3c-0.5,0-1,0.4-1,1V24
		c0,0.5,0.4,1,1,1h13.9c1.7,0,3,0.6,4.2,1.7c1.2,1.2,1.7,2.6,1.7,4.2s-0.6,3-1.7,4.2c-1.2,1.2-2.5,1.7-4.2,1.7H71.3
		c-0.5,0-1,0.4-1,1v13.9c0,1.7-0.6,3-1.7,4.2C67.4,57.1,66,57.7,64.3,57.7z"/>
	<path class="st0" d="M120.1,57.7c-7.3,0-13.7-2.6-18.9-7.8c-5.2-5.2-7.8-11.6-7.8-18.9c0-7.3,2.6-13.7,7.8-18.9
		c5.2-5.2,11.6-7.8,18.9-7.8c7.3,0,13.7,2.6,18.9,7.8c5.2,5.2,7.8,11.6,7.8,18.9c0,7.3-2.6,13.7-7.8,18.9
		C133.8,55.1,127.4,57.7,120.1,57.7z M120.1,16.1c-4.1,0-7.6,1.5-10.5,4.3c-2.9,2.9-4.3,6.4-4.3,10.5c0,4.1,1.5,7.6,4.3,10.5
		c2.9,2.9,6.4,4.3,10.5,4.3c4.1,0,7.6-1.5,10.5-4.3c2.9-2.9,4.3-6.4,4.3-10.5c0-4.1-1.5-7.6-4.3-10.5
		C127.7,17.6,124.2,16.1,120.1,16.1z"/>
	<path class="st0" d="M235.7,57.7c-7.3,0-13.7-2.6-18.9-7.8s-7.8-11.6-7.8-18.9s2.6-13.7,7.8-18.9s11.6-7.8,18.9-7.8
		c7.3,0,13.7,2.6,18.9,7.8c5.2,5.2,7.8,11.6,7.8,18.9s-2.6,13.7-7.8,18.9C249.4,55.1,243,57.7,235.7,57.7z M235.7,16.1
		c-4.1,0-7.6,1.5-10.5,4.3c-2.9,2.9-4.3,6.4-4.3,10.5c0,4.1,1.5,7.6,4.3,10.5c2.9,2.9,6.4,4.3,10.5,4.3c4.1,0,7.6-1.5,10.5-4.3
		c2.9-2.9,4.3-6.4,4.3-10.5c0-4.1-1.5-7.6-4.3-10.5C243.3,17.6,239.8,16.1,235.7,16.1z"/>
	<path class="st0" d="M277.9,57.7c-1.7,0-3-0.6-4.2-1.7c-1.2-1.2-1.7-2.6-1.7-4.2V17.1c0-0.5-0.4-1-1-1H264c-1.7,0-3-0.6-4.2-1.7
		c-1.2-1.2-1.7-2.6-1.7-4.2s0.6-3,1.7-4.2c1.2-1.2,2.5-1.7,4.2-1.7h27.7c1.7,0,3,0.6,4.2,1.7c1.2,1.2,1.7,2.6,1.7,4.2
		s-0.6,3-1.7,4.2c-1.2,1.2-2.5,1.7-4.2,1.7h-6.9c-0.5,0-1,0.4-1,1v34.7c0,1.7-0.6,3-1.7,4.2C280.9,57.1,279.5,57.7,277.9,57.7z"/>
	<path class="st0" d="M320,57.7c-7.3,0-13.7-2.6-18.9-7.8c-5.2-5.2-7.8-11.6-7.8-18.9s2.6-13.7,7.8-18.9c5.2-5.2,11.6-7.8,18.9-7.8
		c7.3,0,13.7,2.6,18.9,7.8c5.2,5.2,7.8,11.6,7.8,18.9s-2.6,13.7-7.8,18.9C333.7,55.1,327.3,57.7,320,57.7z M320,16.1
		c-4.1,0-7.6,1.5-10.5,4.3c-2.9,2.9-4.3,6.4-4.3,10.5c0,4.1,1.5,7.6,4.3,10.5c2.9,2.9,6.4,4.3,10.5,4.3c4.1,0,7.6-1.5,10.5-4.3
		c2.9-2.9,4.3-6.4,4.3-10.5c0-4.1-1.5-7.6-4.3-10.5C327.6,17.6,324.1,16.1,320,16.1z"/>
	<path class="st0" d="M382.7,57.7c-1.7,0-3-0.6-4.2-1.8c-0.4-0.4-0.7-0.8-1-1.2c-0.1-0.1-0.1-0.2-0.2-0.2l-11.4-17.2
		c-0.2-0.3-0.5-0.4-0.8-0.4h-3.2c-0.5,0-1,0.4-1,1v13.9c0,1.7-0.6,3-1.7,4.2c-1.2,1.2-2.5,1.7-4.2,1.7s-3-0.6-4.2-1.7
		c-1.2-1.2-1.7-2.6-1.7-4.2V10.1c0-1.7,0.6-3,1.7-4.2c1.2-1.2,2.5-1.7,4.2-1.7h17.3c4.5,0,8.4,1.6,11.6,4.8
		c3.2,3.2,4.8,7.1,4.8,11.6c0,4.6-1.6,8.3-4.8,11.5c-1.1,1.1-2.3,2.1-3.6,2.8c-0.2,0.1-0.4,0.4-0.5,0.6c-0.1,0.3,0,0.5,0.1,0.8
		l7.9,12.3c0,0.1,0,0.1,0.1,0.2c0.5,0.9,0.8,1.9,0.8,3c0,1.7-0.6,3-1.7,4.2C385.7,57.1,384.3,57.7,382.7,57.7z M361.9,16.1
		c-0.5,0-1,0.4-1,1V24c0,0.5,0.4,1,1,1h10.4c1.2,0,2.3-0.4,3.1-1.3c0.9-0.9,1.3-1.9,1.3-3.1s-0.4-2.3-1.3-3.1
		c-0.9-0.9-1.9-1.3-3.1-1.3H361.9z"/>
	<path class="st0" d="M396.8,57.7c-1.7,0-3-0.6-4.2-1.7c-1.2-1.2-1.7-2.6-1.7-4.2V10.1c0-1.7,0.6-3,1.7-4.2c1.2-1.2,2.5-1.7,4.2-1.7
		c1.7,0,3,0.6,4.2,1.7c1.2,1.2,1.7,2.6,1.7,4.2v41.6c0,1.7-0.6,3-1.7,4.2C399.8,57.1,398.5,57.7,396.8,57.7z"/>
	<g>
		<path class="st1" d="M413.8,57.3c-0.4,0-0.7-0.1-1-0.4c-0.3-0.3-0.4-0.6-0.4-1c0-0.4,0.1-0.7,0.4-1c0.3-0.3,0.6-0.4,1-0.4
			c0.4,0,0.7,0.1,1,0.4c0.3,0.3,0.4,0.6,0.4,1c0,0.2,0,0.4-0.1,0.6c-0.1,0.2-0.2,0.3-0.3,0.5c-0.1,0.1-0.3,0.2-0.4,0.3
			C414.2,57.2,414,57.3,413.8,57.3z"/>
		<path class="st1" d="M408.7,46.7c-0.2,0.2-0.5,0.4-0.6,0.8c-0.2,0.3-0.2,0.7-0.2,1.1c0,0.4,0.1,0.8,0.2,1.1
			c0.2,0.3,0.4,0.6,0.7,0.8c0.3,0.2,0.6,0.4,0.9,0.5c0.3,0.1,0.7,0.1,1,0.1c0.3,0,0.7-0.1,1-0.2c0.3-0.1,0.6-0.3,0.9-0.5
			c0.3-0.2,0.5-0.5,0.7-0.8c0.2-0.3,0.2-0.7,0.2-1.1c0-0.3-0.1-0.7-0.2-1c-0.1-0.3-0.3-0.6-0.6-0.8l1.4-1.4c0.4,0.4,0.7,0.8,0.9,1.4
			c0.2,0.6,0.3,1.2,0.3,1.9c0,0.7-0.1,1.3-0.3,1.9c-0.2,0.6-0.5,1.1-0.9,1.5c-0.4,0.4-0.9,0.8-1.5,1c-0.6,0.3-1.2,0.4-2,0.4
			c-0.7,0-1.4-0.1-1.9-0.4c-0.6-0.3-1.1-0.6-1.5-1c-0.4-0.4-0.7-0.9-0.9-1.5c-0.2-0.6-0.3-1.2-0.3-1.8c0-0.7,0.1-1.3,0.4-1.9
			c0.2-0.6,0.6-1.1,1-1.4L408.7,46.7z"/>
		<path class="st1" d="M410.6,44.9c-0.7,0-1.3-0.1-1.9-0.4c-0.6-0.3-1.1-0.6-1.5-1c-0.4-0.4-0.7-0.9-0.9-1.5s-0.3-1.2-0.3-1.9
			s0.1-1.3,0.3-1.9c0.2-0.6,0.5-1.1,0.9-1.5c0.4-0.4,0.9-0.8,1.5-1c0.6-0.3,1.2-0.4,1.9-0.4c0.7,0,1.3,0.1,1.9,0.4
			c0.6,0.3,1.1,0.6,1.5,1c0.4,0.4,0.7,0.9,1,1.5c0.2,0.6,0.4,1.2,0.4,1.9s-0.1,1.3-0.4,1.9s-0.6,1.1-1,1.5c-0.4,0.4-0.9,0.8-1.5,1
			S411.3,44.9,410.6,44.9z M410.6,42.6c0.3,0,0.7-0.1,1-0.2c0.3-0.1,0.7-0.3,0.9-0.5c0.3-0.2,0.5-0.5,0.7-0.8
			c0.2-0.3,0.3-0.7,0.3-1.1s-0.1-0.8-0.3-1.1c-0.2-0.3-0.4-0.6-0.7-0.8c-0.3-0.2-0.6-0.4-0.9-0.5c-0.3-0.1-0.7-0.2-1-0.2
			c-0.3,0-0.7,0.1-1,0.2c-0.3,0.1-0.6,0.3-0.9,0.5c-0.3,0.2-0.5,0.5-0.7,0.8c-0.2,0.3-0.2,0.7-0.2,1.1s0.1,0.8,0.2,1.1
			c0.2,0.3,0.4,0.6,0.7,0.8c0.3,0.2,0.6,0.4,0.9,0.5C409.9,42.6,410.2,42.6,410.6,42.6z"/>
		<path class="st1" d="M405.9,23.2c0-0.6,0.1-1.1,0.3-1.5c0.2-0.4,0.5-0.8,0.8-1s0.7-0.5,1.1-0.6c0.4-0.1,0.9-0.2,1.3-0.2h5.5v2.2
			h-4.9c-0.3,0-0.5,0-0.8,0.1c-0.3,0-0.5,0.1-0.8,0.2c-0.2,0.1-0.4,0.3-0.6,0.5c-0.1,0.2-0.2,0.5-0.2,0.9c0,0.3,0.1,0.6,0.2,0.9
			c0.1,0.2,0.3,0.4,0.6,0.6s0.5,0.3,0.8,0.4c0.3,0.1,0.6,0.1,0.9,0.1h4.8V28h-5.4c-0.6,0-1,0.1-1.4,0.4s-0.5,0.7-0.5,1.2
			c0,0.3,0.1,0.6,0.2,0.9c0.1,0.2,0.3,0.4,0.5,0.6c0.2,0.2,0.5,0.3,0.8,0.4c0.3,0.1,0.6,0.1,0.9,0.1h4.9v2.2h-8.9v-2.1h1.4v0
			c-0.2-0.1-0.4-0.2-0.6-0.4c-0.2-0.2-0.4-0.4-0.5-0.6c-0.2-0.2-0.3-0.5-0.4-0.8c-0.1-0.3-0.1-0.6-0.1-1c0-0.7,0.2-1.3,0.5-1.7
			c0.3-0.5,0.7-0.8,1.2-1.1c-0.5-0.3-1-0.7-1.2-1.2C406.1,24.4,405.9,23.9,405.9,23.2z"/>
	</g>
	<text transform="matrix(1 0 0 1 404.5664 15.5448)" class="st0 st2 st3">®</text>
	<path class="st0" d="M206.8,9.9c0,0,0-0.1,0-0.1c0-0.1,0-0.2,0-0.2c0,0,0,0,0,0c-0.1-0.8-0.3-1.5-0.6-2.1c0,0,0,0,0,0
		c0-0.1-0.1-0.1-0.1-0.2c0,0,0,0,0,0c0-0.1-0.1-0.1-0.1-0.2c0,0,0-0.1-0.1-0.1c0,0-0.1-0.1-0.1-0.1c0,0,0-0.1-0.1-0.1
		c0,0-0.1-0.1-0.1-0.1c0,0-0.1-0.1-0.1-0.1c0,0-0.1-0.1-0.1-0.1c0,0-0.1-0.1-0.1-0.1c0,0-0.1-0.1-0.1-0.1c0,0-0.1-0.1-0.1-0.1
		c0,0-0.1-0.1-0.1-0.1c0,0-0.1-0.1-0.1-0.1c0,0-0.1-0.1-0.1-0.1c0,0,0,0-0.1-0.1c-0.1-0.1-0.1-0.1-0.2-0.2c0,0,0,0,0,0
		c-0.7-0.5-1.5-0.9-2.4-1.1c0,0,0,0,0,0c-0.1,0-0.2,0-0.2,0c0,0-0.1,0-0.1,0c0,0-0.1,0-0.1,0c-0.1,0-0.2,0-0.3,0c0,0,0,0,0,0
		c-0.1,0-0.2,0-0.3,0c0,0,0,0,0,0c0,0-0.1,0-0.1,0c-0.1,0-0.1,0-0.2,0c-0.1,0-0.1,0-0.2,0c0,0,0,0-0.1,0c-0.1,0-0.2,0-0.3,0
		c0,0,0,0,0,0c-0.5,0.1-0.9,0.2-1.4,0.4c0,0,0,0,0,0c-0.1,0-0.2,0.1-0.2,0.1c0,0,0,0,0,0c-0.1,0-0.1,0.1-0.2,0.1c0,0,0,0-0.1,0
		c-0.1,0-0.1,0.1-0.2,0.1c0,0-0.1,0-0.1,0.1c0,0-0.1,0-0.1,0.1c0,0-0.1,0.1-0.1,0.1c0,0,0,0-0.1,0.1c-0.1,0-0.1,0.1-0.2,0.1
		c0,0,0,0,0,0c-0.1,0-0.1,0.1-0.2,0.1c0,0,0,0,0,0c-0.1,0.1-0.1,0.1-0.2,0.2c0,0,0,0,0,0c-0.1,0.1-0.1,0.1-0.2,0.2c0,0,0,0,0,0
		c-0.1,0.1-0.1,0.1-0.2,0.2c0,0,0,0,0,0c-0.1,0.1-0.1,0.1-0.1,0.2c0,0,0,0-0.1,0.1c0,0-0.1,0.1-0.1,0.1c0,0-0.1,0.1-0.1,0.1
		c0,0,0,0.1-0.1,0.1c-0.1,0.1-0.1,0.2-0.2,0.3l-14.6,23.9V10.1c0,0,0-0.1,0-0.1c0,0,0-0.1,0-0.1c0-0.1,0-0.2,0-0.2c0,0,0,0,0,0
		c-0.1-0.8-0.3-1.5-0.6-2.1c0,0,0,0,0,0c0-0.1-0.1-0.1-0.1-0.2c0,0,0,0,0,0c0-0.1-0.1-0.1-0.1-0.2c0,0,0-0.1-0.1-0.1
		c0,0-0.1-0.1-0.1-0.1c0,0,0-0.1-0.1-0.1c0,0-0.1-0.1-0.1-0.1c0,0-0.1-0.1-0.1-0.1c0,0-0.1-0.1-0.1-0.1c0,0-0.1-0.1-0.1-0.1
		c0,0-0.1-0.1-0.1-0.1c0,0-0.1-0.1-0.1-0.1c0,0-0.1-0.1-0.1-0.1c0,0-0.1-0.1-0.1-0.1c0,0-0.1-0.1-0.1-0.1c0,0,0,0-0.1-0.1
		c-0.1-0.1-0.1-0.1-0.2-0.2c0,0,0,0,0,0c-0.7-0.5-1.5-0.9-2.4-1.1c0,0,0,0,0,0c-0.1,0-0.2,0-0.2,0c0,0-0.1,0-0.1,0c0,0-0.1,0-0.1,0
		c-0.1,0-0.2,0-0.3,0c0,0,0,0,0,0c-0.1,0-0.2,0-0.3,0c0,0,0,0,0,0c0,0-0.1,0-0.1,0c-0.1,0-0.1,0-0.2,0c-0.1,0-0.1,0-0.2,0
		c0,0,0,0-0.1,0c-0.1,0-0.2,0-0.3,0c0,0,0,0,0,0c-0.5,0.1-0.9,0.2-1.4,0.4c0,0,0,0,0,0c-0.1,0-0.2,0.1-0.2,0.1c0,0,0,0,0,0
		c-0.1,0-0.1,0.1-0.2,0.1c0,0,0,0-0.1,0c-0.1,0-0.1,0.1-0.2,0.1c0,0-0.1,0-0.1,0.1c0,0-0.1,0-0.1,0.1c0,0-0.1,0.1-0.1,0.1
		c0,0,0,0-0.1,0.1c-0.1,0-0.1,0.1-0.2,0.1c0,0,0,0,0,0c-0.1,0-0.1,0.1-0.2,0.1c0,0,0,0,0,0c-0.1,0.1-0.1,0.1-0.2,0.2c0,0,0,0,0,0
		c-0.1,0.1-0.1,0.1-0.2,0.2c0,0,0,0,0,0C171.1,6,171,6,171,6.1c0,0,0,0,0,0c-0.1,0.1-0.1,0.1-0.1,0.2c0,0,0,0-0.1,0.1
		c0,0-0.1,0.1-0.1,0.1c0,0-0.1,0.1-0.1,0.1c0,0,0,0.1-0.1,0.1c-0.1,0.1-0.1,0.2-0.2,0.3l-25.5,41.7c-1.7,2.8-0.8,6.4,1.9,8.1
		c2.8,1.7,6.4,0.8,8.1-1.9L169.4,31v20.9c0,0,0,0.1,0,0.1c0,0,0,0.1,0,0.1c0,0.1,0,0.2,0,0.2c0,0,0,0,0,0.1c0.1,0.8,0.3,1.5,0.6,2.1
		c0,0,0,0,0,0c0,0.1,0.1,0.1,0.1,0.2c0,0,0,0,0,0c0,0.1,0.1,0.1,0.1,0.2c0,0,0,0.1,0.1,0.1c0,0,0.1,0.1,0.1,0.1c0,0,0,0.1,0.1,0.1
		c0,0,0.1,0.1,0.1,0.1c0,0,0.1,0.1,0.1,0.1c0,0,0.1,0.1,0.1,0.1c0,0,0.1,0.1,0.1,0.1c0,0,0.1,0.1,0.1,0.1c0,0,0.1,0.1,0.1,0.1
		c0,0,0.1,0.1,0.1,0.1c0,0,0.1,0.1,0.1,0.1c0,0,0.1,0.1,0.1,0.1c0,0,0,0,0.1,0.1c0.1,0.1,0.1,0.1,0.2,0.2c0,0,0,0,0,0
		c0.7,0.5,1.5,0.9,2.4,1.1c0,0,0,0,0,0c0.1,0,0.2,0,0.2,0c0,0,0.1,0,0.1,0c0,0,0.1,0,0.1,0c0.1,0,0.2,0,0.3,0c0,0,0,0,0,0
		c0.1,0,0.2,0,0.3,0c0,0,0,0,0,0c0,0,0.1,0,0.1,0c0.1,0,0.1,0,0.2,0c0.1,0,0.1,0,0.2,0c0,0,0,0,0.1,0c0.1,0,0.2,0,0.3,0c0,0,0,0,0,0
		c0.5-0.1,0.9-0.2,1.4-0.4c0,0,0,0,0,0c0.1,0,0.2-0.1,0.2-0.1c0,0,0,0,0,0c0.1,0,0.1-0.1,0.2-0.1c0,0,0,0,0.1,0
		c0.1,0,0.1-0.1,0.2-0.1c0,0,0.1,0,0.1-0.1c0,0,0.1,0,0.1-0.1c0,0,0.1-0.1,0.1-0.1c0,0,0.1,0,0.1-0.1c0.1,0,0.1-0.1,0.2-0.1
		c0,0,0,0,0,0c0.1,0,0.1-0.1,0.2-0.1c0,0,0,0,0,0c0.1-0.1,0.1-0.1,0.2-0.2c0,0,0,0,0,0c0.1-0.1,0.1-0.1,0.2-0.2c0,0,0,0,0,0
		c0.1-0.1,0.1-0.1,0.2-0.2c0,0,0,0,0,0c0.1-0.1,0.1-0.1,0.1-0.2c0,0,0,0,0.1-0.1c0,0,0.1-0.1,0.1-0.1c0,0,0.1-0.1,0.1-0.1
		c0,0,0-0.1,0.1-0.1c0.1-0.1,0.1-0.2,0.2-0.3L195,31v20.9c0,3.3,2.6,5.9,5.9,5.9c3.3,0,5.9-2.6,5.9-5.9V10.1
		C206.8,10,206.8,10,206.8,9.9z"/>
</g>
</svg>
