<svg xmlns="http://www.w3.org/2000/svg" viewBox="0 0 100 100">
  <!-- Sfondo circolare -->
  <circle cx="50" cy="50" r="48" fill="#ffffff" />
  
  <!-- Schermo/Pagina web stilizzata -->
  <rect x="20" y="20" width="60" height="60" rx="3" fill="#ffffff" stroke="#3498db" stroke-width="2" />
  
  <!-- Barra degli indirizzi -->
  <rect x="23" y="23" width="54" height="8" rx="2" fill="#ecf0f1" />
  <circle cx="27" cy="27" r="2" fill="#e74c3c" />
  <circle cx="33" cy="27" r="2" fill="#f1c40f" />
  <circle cx="39" cy="27" r="2" fill="#2ecc71" />
  
  <!-- Linee di testo stilizzate -->
  <rect x="25" y="38" width="40" height="2" rx="1" fill="#34495e" />
  <rect x="25" y="45" width="50" height="2" rx="1" fill="#34495e" />
  <rect x="25" y="52" width="45" height="2" rx="1" fill="#34495e" />
  
  <!-- Cursore lampeggiante -->
  <rect x="25" y="59" width="2" height="12" fill="#3498db">
    <animate attributeName="opacity" values="0;1;0" dur="1.5s" repeatCount="indefinite" />
  </rect>
  
  <!-- Matita stilizzata -->
  <path d="M68 68 L80 56 L77 53 L65 65 Z" fill="#f1c40f" />
  <path d="M80 56 L83 59 L80 62 L77 59 Z" fill="#e67e22" />
  <path d="M65 65 L68 68 L65 71 L62 68 Z" fill="#95a5a6" />
</svg>
